<svg width="547" height="504" viewBox="0 0 547 504" fill="none" xmlns="http://www.w3.org/2000/svg">
<rect width="547" height="504" fill="#E5E5E5"/>
<g id="respond_blkwoman 1" clip-path="url(#clip0)">
<path id="Vector" d="M7.55088 230.742C11.7211 230.742 15.1018 227.239 15.1018 222.917C15.1018 218.595 11.7211 215.091 7.55088 215.091C3.38064 215.091 0 218.595 0 222.917C0 227.239 3.38064 230.742 7.55088 230.742Z" fill="#E6E6E6"/>
<g id="left arm">
<path id="Vector_2" d="M380.926 273.315L376.704 300.619C376.44 302.329 375.816 303.959 374.878 305.393C373.939 306.827 372.708 308.03 371.272 308.916C369.836 309.803 368.229 310.353 366.566 310.526C364.903 310.699 363.223 310.492 361.645 309.919C360.076 309.349 358.645 308.43 357.454 307.228C356.263 306.025 355.339 304.568 354.747 302.957C354.156 301.347 353.911 299.621 354.029 297.902C354.147 296.183 354.627 294.512 355.433 293.005L369.167 267.333L422.259 157.431C424.349 153.777 427.547 150.942 431.355 149.368C435.162 147.795 439.365 147.572 443.308 148.734L448.933 150.391L440.567 175.814L380.926 273.315Z" fill="#A0616A"/>
</g>
<path id="Vector_3" d="M529.337 462.082L541.765 461.403L528.029 413.951L508.405 418.018L529.337 462.082Z" fill="#A0616A"/>
<path id="Vector_4" d="M405.055 470.895H418.792L425.987 424.797H405.055V470.895Z" fill="#A0616A"/>
<path id="Vector_5" d="M426.829 81.4977C426.829 91.6165 430.681 101.327 437.548 108.52C444.415 115.713 453.743 119.808 463.506 119.915C473.27 120.022 482.679 116.134 489.692 109.093C496.705 102.053 500.755 92.4292 500.962 82.3127C500.973 82.0449 500.973 81.7655 500.973 81.4977C500.975 76.4508 500.018 71.4529 498.156 66.7895C496.294 62.1261 493.563 57.8886 490.121 54.3191C486.678 50.7496 482.591 47.918 478.092 45.9861C473.593 44.0542 468.771 43.0598 463.901 43.0598C459.031 43.0598 454.209 44.0542 449.71 45.9861C445.211 47.918 441.124 50.7496 437.681 54.3191C434.239 57.8886 431.508 62.1261 429.646 66.7895C427.784 71.4529 426.827 76.4508 426.829 81.4977Z" fill="#2F2E41"/>
<g id="bun">
<path id="Vector_6" d="M479.628 60.5416C490.176 60.5416 498.726 51.6804 498.726 40.7496C498.726 29.8189 490.176 20.9577 479.628 20.9577C469.081 20.9577 460.531 29.8189 460.531 40.7496C460.531 51.6804 469.081 60.5416 479.628 60.5416Z" fill="#2F2E41"/>
</g>
<g id="poneytail">
<path id="Vector_7" d="M477.636 55.8786C481.322 57.2745 485.333 57.4596 489.124 56.4086C492.915 55.3576 496.301 53.1216 498.822 50.0049C501.343 46.8882 502.876 43.0422 503.213 38.9903C503.55 34.9384 502.674 30.8774 500.704 27.36C502.507 29.4128 503.873 31.836 504.714 34.4719C505.554 37.1078 505.85 39.8974 505.582 42.6596C505.314 45.4217 504.488 48.0945 503.158 50.5042C501.828 52.9139 500.023 55.0065 497.862 56.6462C495.7 58.2859 493.23 59.4358 490.612 60.0213C487.993 60.6068 485.285 60.6147 482.664 60.0445C480.042 59.4744 477.566 58.3389 475.395 56.7119C473.225 55.0849 471.409 53.0028 470.066 50.6009C472.138 52.9712 474.737 54.7827 477.636 55.8786V55.8786Z" fill="#2F2E41"/>
</g>
<g id="head">
<path id="Vector_8" d="M460.977 123.672C472.806 123.672 482.396 113.733 482.396 101.473C482.396 89.2137 472.806 79.2753 460.977 79.2753C449.147 79.2753 439.557 89.2137 439.557 101.473C439.557 113.733 449.147 123.672 460.977 123.672Z" fill="#A0616A"/>
</g>
<g id="neck">
<path id="Vector_9" d="M476.354 109.574C476.354 109.574 478.316 135.334 490.744 140.757L442.34 186.854L426.641 179.397L437.761 146.858C437.761 146.858 463.271 141.435 452.806 117.708L476.354 109.574Z" fill="#A0616A"/>
</g>
<path id="Vector_10" d="M393.935 428.865L429.257 430.898L445.61 303.453L488.128 430.22L530.645 415.984L488.782 270.914C478.003 230.784 487.072 186.682 501.864 141.435L485.511 136.69L448.227 142.113C444.372 142.119 440.588 143.191 437.267 145.22C433.946 147.248 431.207 150.158 429.334 153.65C420.15 170.692 413.509 187.226 418.923 201.35C397.216 260.229 392.535 340.692 393.935 428.865Z" fill="#2F2E41"/>
<g id="right arm">
<path id="Vector_11" d="M498.594 281.76L489.51 307.761C488.941 309.39 488.723 311.129 488.874 312.854C489.024 314.58 489.537 316.25 490.378 317.748C491.219 319.245 492.367 320.533 493.741 321.52C495.115 322.508 496.681 323.171 498.329 323.462V323.462C499.968 323.752 501.649 323.668 503.253 323.215C504.858 322.762 506.348 321.952 507.619 320.84C508.89 319.729 509.911 318.343 510.612 316.78C511.313 315.217 511.676 313.515 511.676 311.791V282.438L516.665 159.641C516.547 155.395 515.077 151.308 512.483 148.018C509.889 144.729 506.318 142.422 502.326 141.456L496.631 140.079L492.052 166.517L498.594 281.76Z" fill="#A0616A"/>
</g>
<path id="Vector_12" d="M533.784 499.761C536.417 499.841 538.997 498.986 541.096 497.338C543.196 495.69 544.688 493.348 545.327 490.7L545.762 488.898C547.843 480.272 547.29 471.189 544.181 462.902L539.803 451.235L526.72 457.336L522.695 486.078C522.461 487.748 522.57 489.45 523.016 491.073C523.461 492.696 524.233 494.203 525.28 495.495C526.328 496.787 527.627 497.835 529.092 498.57C530.558 499.306 532.157 499.711 533.784 499.761V499.761Z" fill="#2F2E41"/>
<path id="Vector_13" d="M384.019 502.513C385.451 503.416 387.082 503.926 388.757 503.992C390.432 504.059 392.096 503.682 393.591 502.895L418.499 488.355C420.115 487.413 421.408 485.973 422.2 484.236C422.992 482.499 423.245 480.55 422.922 478.658L420.1 462.082H404.401L381.966 486.817C380.963 487.923 380.211 489.247 379.764 490.692C379.317 492.137 379.188 493.668 379.385 495.172C379.581 496.676 380.1 498.115 380.901 499.385C381.703 500.655 382.768 501.724 384.019 502.513V502.513Z" fill="#2F2E41"/>
<g id="hair">
<path id="Vector_14" d="M427.166 76.3169C432.974 90.9048 447.983 101.29 465.586 101.29C480.662 101.29 493.839 93.6756 500.962 82.3127C500.973 82.0449 500.973 81.7655 500.973 81.4977C500.972 71.7576 497.402 62.3811 490.985 55.2649C484.568 48.1488 475.782 43.8242 466.405 43.166C457.028 42.5078 447.76 45.5651 440.476 51.7194C433.191 57.8738 428.434 66.6658 427.166 76.3169Z" fill="#2F2E41"/>
</g>
<g id="bubble">
<path id="Vector_15" d="M361.886 189.787C361.877 166.253 354.408 143.374 340.628 124.669C326.849 105.963 307.521 92.4674 285.618 86.2568C263.715 80.0461 240.45 81.4647 219.401 90.2942C198.352 99.1237 180.685 114.875 169.116 135.126C157.548 155.377 152.72 179.006 155.373 202.378C158.027 225.751 168.017 247.572 183.805 264.487C199.593 281.401 220.306 292.472 242.758 295.997C265.21 299.521 288.157 295.304 308.07 283.993C315.236 289.277 332.715 299.815 349.982 292.224L329.197 268.076C339.529 258.043 347.763 245.917 353.386 232.449C359.009 218.982 361.902 204.461 361.886 189.787Z" fill="#6C63FF"/>
</g>
<path id="Vector_16" d="M205.247 172.068C226.69 171.837 248.131 171.439 269.573 171.138C276.721 171.037 283.87 170.949 291.019 170.873C297.178 170.806 297.194 160.88 291.019 160.947C269.575 161.178 248.135 161.575 226.692 161.877C219.544 161.978 212.395 162.066 205.247 162.142C199.087 162.208 199.072 172.135 205.247 172.068V172.068Z" fill="white"/>
<path id="Vector_17" d="M205.247 195.229L291.912 194.299L316.56 194.034C322.719 193.968 322.735 184.042 316.56 184.108L229.895 185.039L205.247 185.303C199.087 185.369 199.072 195.296 205.247 195.229V195.229Z" fill="white"/>
<path id="Vector_18" d="M205.247 218.391L291.912 217.46L316.56 217.195C322.719 217.129 322.735 207.203 316.56 207.269L229.895 208.2L205.247 208.464C199.087 208.53 199.072 218.457 205.247 218.391Z" fill="white"/>
</g>
<defs>
<clipPath id="clip0">
<rect width="547" height="504" fill="white"/>
</clipPath>
</defs>
</svg>
